<svg width="14" height="14" viewBox="0 0 14 14" fill="none" xmlns="http://www.w3.org/2000/svg">
<path fill-rule="evenodd" clip-rule="evenodd" d="M2.43578 2.68578C2.69393 1.5072 3.74394 0.625 5 0.625H11C12.4497 0.625 13.625 1.80025 13.625 3.25V9.25C13.625 10.5061 12.7428 11.5561 11.5642 11.8142C11.3061 12.9928 10.2561 13.875 9 13.875H3C1.55025 13.875 0.375 12.6997 0.375 11.25V5.25C0.375 3.99394 1.2572 2.94393 2.43578 2.68578ZM3.77493 2.625C4.00252 2.17979 4.46566 1.875 5 1.875H11C11.7594 1.875 12.375 2.49061 12.375 3.25V9.25C12.375 9.78434 12.0702 10.2475 11.625 10.4751V5.25C11.625 3.80025 10.4497 2.625 9 2.625H3.77493ZM1.625 5.25C1.625 4.49061 2.24061 3.875 3 3.875H9C9.75939 3.875 10.375 4.49061 10.375 5.25V11.25C10.375 12.0094 9.75939 12.625 9 12.625H3C2.24061 12.625 1.625 12.0094 1.625 11.25V5.25Z" fill="white"/>
</svg>