<svg width="14" height="14" viewBox="0 0 14 14" fill="none" xmlns="http://www.w3.org/2000/svg">
<path fill-rule="evenodd" clip-rule="evenodd" d="M2.43578 2.06078C2.69393 0.8822 3.74394 0 5 0H11C12.4497 0 13.625 1.17525 13.625 2.625V8.625C13.625 9.88106 12.7428 10.9311 11.5642 11.1892C11.3061 12.3678 10.2561 13.25 9 13.25H3C1.55025 13.25 0.375 12.0747 0.375 10.625V4.625C0.375 3.36894 1.2572 2.31893 2.43578 2.06078ZM3.77493 2C4.00252 1.55479 4.46566 1.25 5 1.25H11C11.7594 1.25 12.375 1.86561 12.375 2.625V8.625C12.375 9.15934 12.0702 9.62248 11.625 9.85007V4.625C11.625 3.17525 10.4497 2 9 2H3.77493ZM1.625 4.625C1.625 3.86561 2.24061 3.25 3 3.25H9C9.75939 3.25 10.375 3.86561 10.375 4.625V10.625C10.375 11.3844 9.75939 12 9 12H3C2.24061 12 1.625 11.3844 1.625 10.625V4.625Z" fill="white"/>
</svg>