<svg width="53" height="53" viewBox="0 0 53 53" fill="none" xmlns="http://www.w3.org/2000/svg">
<rect width="53" height="53" rx="26.5" fill="#FDE79A"/>
<path opacity="0.7" d="M53 26.5C53 33.5282 50.208 40.2686 45.2383 45.2383C40.2686 50.208 33.5282 53 26.5 53C19.4718 53 12.7314 50.208 7.76167 45.2383C2.79196 40.2686 1.06123e-06 33.5282 0 26.5L13.2375 26.5C13.2375 30.0174 14.6348 33.3908 17.122 35.878C19.6092 38.3652 22.9826 39.7625 26.5 39.7625C30.0174 39.7625 33.3908 38.3652 35.878 35.878C38.3652 33.3908 39.7625 30.0174 39.7625 26.5H53Z" fill="#423F34"/>
<path opacity="0.7" d="M53 26.5C53 19.4718 50.208 12.7314 45.2383 7.76167C40.2686 2.79196 33.5282 0 26.5 0C19.4718 0 12.7314 2.79195 7.76167 7.76167C2.79196 12.7314 1.06123e-06 19.4718 0 26.5L13.2375 26.5C13.2375 22.9826 14.6348 19.6092 17.122 17.122C19.6092 14.6348 22.9826 13.2375 26.5 13.2375C30.0174 13.2375 33.3908 14.6348 35.878 17.122C38.3652 19.6092 39.7625 22.9826 39.7625 26.5H53Z" fill="#25231D"/>
</svg>